<svg version="1.1" viewBox="0 0 4096 4096" xmlns="http://www.w3.org/2000/svg">
  <path id="background" fill="#ffffff" d="m0 0h4096v4096h-4096v-4096z"/>
  <path id="text" fill="#03060e" d="m2753 3036c-21.86 0-41.95 2.619-60.29 7.834a2.5 2.5 0 0 1-0.0215 0.0098c-18.35 5.038-34.3 12.39-47.89 22.05-13.39 9.463-23.78 20.92-31.25 34.44a2.5 2.5 0 0 1-0.0098 0.0117c-7.439 13.28-11.17 28.23-11.17 44.99 0 17.51 3.651 32.74 10.9 45.81v0.0098c7.303 13 17.18 24.4 29.69 34.23l0.0098 0.0097 0.0097 0.0098c12.59 9.708 26.9 18.26 42.96 25.66h0.0136l0.0098 0.0117c16.14 7.251 32.91 13.78 50.32 19.58h0.0098c15 4.94 27.11 9.704 36.39 14.34 9.421 4.435 16.71 8.891 21.9 13.51 5.164 4.59 8.817 9.676 10.8 15.23 1.938 5.239 2.887 11.1 2.887 17.54 0 7.515-1.853 14.55-5.529 20.94a2.5 2.5 0 0 1-0.0156 0.0254c-3.75 6.316-9.652 11.38-17.46 15.19a2.5 2.5 0 0 1-0.045 0.0234c-7.945 3.682-18.13 5.428-30.58 5.428-11.45 0-21.66-1.013-30.64-3.07a2.5 2.5 0 0 1-0.0488-0.0136c-9.031-2.258-16.76-5.865-23.09-10.85a2.5 2.5 0 0 1-0.0351-0.0254c-6.368-5.21-11.19-12.08-14.42-20.45-3.01-7.79-4.518-17.14-4.73-27.93h-91.21c0.3344 22.07 4.874 41.17 13.77 57.25 9.48 16.63 22.05 30.26 37.78 40.99 15.79 10.59 33.38 18.49 52.81 23.71 0 0 0.0097-7e-4 0.0097 0 19.67 5.052 39.6 7.576 59.8 7.576 22.06 0 41.98-2.442 59.77-7.295 17.79-4.852 32.99-11.93 45.65-21.19 12.65-9.446 22.31-20.88 29.06-34.38 6.735-13.47 10.13-28.92 10.13-46.46 0-16.47-2.948-31.14-8.801-44.09a2.5 2.5 0 0 1-0.0117-0.0254c-5.687-12.97-14.12-24.52-25.37-34.7a2.5 2.5 0 0 1-0.0293-0.0274c-11.09-10.38-24.83-19.64-41.24-27.75a2.5 2.5 0 0 1-0.0312-0.0136c-16.26-8.311-34.91-15.83-55.95-22.54a2.5 2.5 0 0 1-0.0097 0c-11.36-3.664-21.63-7.424-30.83-11.29a2.5 2.5 0 0 1-0.0176-0.0098c-9.038-3.873-16.82-7.943-23.36-12.24a2.5 2.5 0 0 1-0.0274-0.0195c-6.381-4.317-11.43-8.965-15.11-13.99a2.5 2.5 0 0 1-0.0625-0.0879c-3.542-5.313-5.342-11.32-5.342-17.79 0-7.763 2.272-14.97 6.727-21.37 4.489-6.631 11.11-11.85 19.64-15.64 8.618-3.83 19.08-5.684 31.37-5.684 12.69 0 23.41 2.236 32.07 6.857 8.582 4.577 15.1 10.98 19.35 19.08 4.041 7.389 6.119 15.86 6.449 25.2h90.48c-0.4132-23.65-6.586-44.07-18.62-61.43a2.5 2.5 0 0 1-0.0156-0.0235c-12.31-18.2-29.39-32.18-51.45-42.05a2.5 2.5 0 0 1-0.0235-0.0118c-21.86-10.04-47.19-15.08-76.07-15.08l0.0039-0.0079zm-2031 0.0079v0.0097c-25.41 0-48.57 4.499-69.56 13.47a2.5 2.5 0 0 1-0.00977 0c-20.82 8.794-38.82 21.6-54.08 38.47h-0.00196c-15.07 16.68-26.84 36.97-35.31 60.94h-0.00196c-8.279 23.94-12.44 51-12.44 81.21v16.13c0 30.21 4.161 57.27 12.44 81.21l0.00196 0.0097c8.467 23.77 20.32 44.05 35.57 60.92 15.44 16.7 33.54 29.51 54.36 38.49 2e-3 0 0.00386-8e-4 0.00586 0 21 8.792 44.17 13.2 69.58 13.2 25.23 0 48.21-4.409 69.02-13.2 20.83-8.979 38.83-21.79 54.09-38.49 15.25-16.87 27.02-37.15 35.3-60.93a2.5 2.5 0 0 1 0.0039-0.0097c8.458-23.93 12.71-50.99 12.71-81.2v-16.13c0-30.21-4.251-57.26-12.71-81.2-8.471-23.97-20.33-44.26-35.58-60.94a2.5 2.5 0 0 1-0.00781-0.0098c-15.26-16.87-33.34-29.68-54.35-38.47a2.5 2.5 0 0 1-0.02539-0.0117c-20.81-8.97-43.79-13.47-69.01-13.47zm708.1 0v0.0097c-25.41 0-48.57 4.499-69.56 13.47a2.5 2.5 0 0 1-0.0098 0c-20.82 8.794-38.82 21.6-54.08 38.47-15.07 16.68-26.84 36.97-35.31 60.94-8.279 23.94-12.44 51-12.44 81.21v16.13c0 30.21 4.161 57.27 12.44 81.21v0.0097c8.467 23.77 20.32 44.05 35.57 60.92 15.44 16.7 33.54 29.51 54.36 38.49 0.01 0 0.0098-8e-4 0.0098 0 21 8.792 44.16 13.2 69.58 13.2 25.23 0 48.21-4.409 69.02-13.2 20.83-8.979 38.83-21.79 54.09-38.49 15.25-16.87 27.02-37.15 35.3-60.93a2.5 2.5 0 0 1 0-0.0097c8.458-23.93 12.71-50.99 12.71-81.2v-16.13c0-30.21-4.251-57.26-12.71-81.2-8.471-23.97-20.33-44.26-35.58-60.94a2.5 2.5 0 0 1-0.0098-0.0098c-15.26-16.87-33.34-29.68-54.35-38.47a2.5 2.5 0 0 1-0.0254-0.0117c-20.81-8.97-43.79-13.47-69.01-13.47zm-1214 5.469v393.1h90.98v-138a2.5 2.5 0 0 1 2.5-2.5h51.68a2.5 2.5 0 0 1 2.236 1.383l69.58 139.2h98.77v-0.9941l-82.74-160.1a2.5 2.5 0 0 1 1.137-3.398c10.55-5.081 20.16-10.91 28.69-17.58 12.45-9.783 22.13-22.11 29.08-37.1 6.91-14.88 10.43-33.57 10.43-56.1 0-25.86-6.08-47.35-18.15-64.75a2.5 2.5 0 0 1-0.00977-0.0156c-11.92-17.43-28.87-30.6-51.1-39.56-22.24-8.968-48.53-13.49-78.91-13.49h-154.2zm712 0 0.00391 393.1h93.48 62.62c32.59 0 59.81-4.354 81.66-12.95 21.84-8.594 38.03-21.37 48.85-38.39a2.5 2.5 0 0 1 0.0098-0.0176c11-17.02 16.55-38.29 16.55-64 0-14.95-3.28-29.22-9.871-42.94-6.503-13.53-17.27-24.43-32.58-32.79a2.5 2.5 0 0 1-0.0098-0.0098c-5.546-3.067-12.23-5.33-19.52-7.156a2.5 2.5 0 0 1-0.2891-4.76c3.671-1.408 7.211-2.841 10.25-4.498 15.86-8.734 27-19.92 33.68-33.63 6.763-13.88 10.14-28.7 10.14-44.57 0-18.28-3.487-33.98-10.38-47.24a2.5 2.5 0 0 1-0.0098-0.0137c-6.914-13.47-16.98-24.61-30.33-33.51a2.5 2.5 0 0 1-0.0136-0.0097c-13.18-8.908-29.29-15.55-48.37-19.87a2.5 2.5 0 0 1-0.0215 0c-19.09-4.503-40.87-6.77-65.32-6.77h-140.5zm664.6 0v69.1h114.5a2.5 2.5 0 0 1 2.5 2.5v321.5h90.98v-321.5a2.5 2.5 0 0 1 2.5-2.5h117.3v-69.1h-327.8zm479.7 0 131.8 393.1h68.47 32.66l132.6-393.1h-102.1l-78.52 288.4a2.5 2.5 0 0 1-4.824 0l-78.52-288.4h-101.5zm387 0v393.1h90.7v-393.1h-90.7zm472.1 0 0.0098 257.5c0 30.63 6.474 56.39 19.32 77.44v0.0097c13.06 20.92 31.05 36.69 54.15 47.43 23.32 10.76 50.37 16.17 81.25 16.17 31.25 0 58.3-5.416 81.24-16.17 22.93-10.75 40.64-26.51 53.33-47.42 12.67-21.06 19.06-46.82 19.06-77.46v-257.5h-90.98v257.5c0 16.64-2.295 30.37-7.047 41.2a2.5 2.5 0 0 1-0.0098 0.0156c-4.746 10.63-11.91 18.61-21.35 23.61-9.38 4.977-20.83 7.4-34.26 7.4-13.25 0-24.7-2.428-34.24-7.391-9.609-4.997-16.96-12.96-21.89-23.59a2.5 2.5 0 0 1-0.0098-0.0156c-4.946-10.84-7.334-24.59-7.334-41.23v-257.5h-91.25zm461.6 0-144.5 393.1h97.66l22.41-72.61a2.5 2.5 0 0 1 2.389-1.762h131.5a2.5 2.5 0 0 1 2.389 1.76l22.48 72.62h97.93l-145.3-393.1h-23.41-63.61zm247.4 0v393.1h93.48 164.6v-68.83h-164.6a2.5 2.5 0 0 1-2.5-2.5v-321.8h-90.98zm-2919 64.72c12.57 0 23.86 2.734 33.74 8.236 10.05 5.316 18.49 13.3 25.24 23.81 6.761 10.52 11.77 23.47 15.1 38.81l0.0039 0.0157c3.513 15.18 5.252 32.66 5.252 52.48v16.68c0 19.64-1.742 37.14-5.254 52.49-3.329 15.17-8.34 28.11-15.09 38.8l-0.00586 0.0117c-6.567 10.69-14.82 18.86-24.69 24.36-9.878 5.509-21.18 8.246-33.76 8.246-13.11 0-24.76-2.728-34.83-8.236a2.5 2.5 0 0 1-0.01757-0.0118c-9.873-5.506-18.21-13.68-24.96-24.36a2.5 2.5 0 0 1-0.01758-0.0254c-6.56-10.68-11.47-23.62-14.8-38.78a2.5 2.5 0 0 1-0.00781-0.0332c-3.141-15.34-4.699-32.82-4.699-52.46v-16.68c0-19.82 1.558-37.3 4.701-52.46a2.5 2.5 0 0 1 0.00391-0.0215c3.328-15.34 8.244-28.29 14.82-38.8 6.572-10.51 14.83-18.51 24.71-23.83 9.893-5.514 21.46-8.24 34.56-8.24v-2e-3zm708.1 0c12.57 0 23.86 2.734 33.74 8.236 10.05 5.316 18.49 13.3 25.24 23.81 6.761 10.52 11.77 23.47 15.1 38.81v0.0157c3.513 15.18 5.252 32.66 5.252 52.48v16.68c0 19.64-1.742 37.14-5.254 52.49-3.329 15.17-8.34 28.11-15.09 38.8l-0.0098 0.0117c-6.567 10.69-14.82 18.86-24.69 24.36-9.878 5.509-21.18 8.246-33.76 8.246-13.11 0-24.76-2.728-34.83-8.236a2.5 2.5 0 0 1-0.0195-0.0118c-9.873-5.506-18.21-13.68-24.96-24.36a2.5 2.5 0 0 1-0.0176-0.0254c-6.56-10.68-11.47-23.62-14.8-38.78a2.5 2.5 0 0 1-0.0098-0.0332c-3.141-15.34-4.699-32.82-4.699-52.46v-16.68c0-19.82 1.558-37.3 4.701-52.46a2.5 2.5 0 0 1 0-0.0215c3.328-15.34 8.244-28.29 14.82-38.8 6.572-10.51 14.83-18.51 24.7-23.83 9.893-5.514 21.46-8.24 34.56-8.24l0.0156-2e-3zm-1120 4.377h60.7c12.15 0 22.51 2.242 30.98 6.857 8.62 4.597 15.23 11.3 19.64 19.93 4.408 8.624 6.562 18.88 6.562 30.67 2e-5 11.6-2.156 21.77-6.555 30.38-4.227 8.453-10.65 15.07-19.08 19.67-8.489 4.63-19.04 6.867-31.55 6.867h-60.7a2.5 2.5 0 0 1-2.5-2.5v-109.4a2.5 2.5 0 0 1 2.5-2.5zm712 0h47.03c14.39 0 26.22 1.643 35.55 5.064 9.53 3.245 16.75 8.635 21.27 16.1 4.505 7.442 6.65 17.03 6.65 28.64 0 10.18-2.181 18.89-6.666 25.92-4.34 7.094-11.33 12.45-20.63 16.05a2.5 2.5 0 0 1-0.043 0.0176c-9.356 3.437-21.55 5.074-36.68 5.074h-46.48a2.5 2.5 0 0 1-2.5-2.5v-91.88a2.5 2.5 0 0 1 2.5-2.5zm2415 36.99a2.5 2.5 0 0 1 2.391 1.76l42.89 138.6a2.5 2.5 0 0 1-2.389 3.24h-85.66a2.5 2.5 0 0 1-2.389-3.238l42.77-138.6a2.5 2.5 0 0 1 2.387-1.762zm-2415 117.8h66.45c12.49 0 22.67 2.126 30.49 6.613 7.706 4.245 13.42 10.44 16.91 18.37 3.641 7.864 5.42 17.07 5.42 27.56 0 8.744-1.916 16.83-5.752 24.12-3.726 7.249-9.912 13.09-18.29 17.47a2.5 2.5 0 0 1-0.0195 0.0117c-8.342 4.268-19.2 6.289-32.58 6.289h-62.62a2.5 2.5 0 0 1-2.5-2.5v-95.43a2.5 2.5 0 0 1 2.5-2.5zm568.5 253.3c-24.86-1e-4 -47.38 4.407-67.64 13.19-20.27 8.789-37.62 21.49-52.15 38.18-14.34 16.49-25.48 36.6-33.42 60.39 0 0.01 6e-4 0.0097 0 0.0097v0.0098c-7.74 23.58-11.63 50.2-11.63 79.87v21.6c0 29.68 3.71 56.31 11.09 79.9v0.0137 0.0097c7.567 23.59 18.43 43.6 32.59 60.08l0.0098 0.0097c14.34 16.49 31.68 29.09 52.13 37.88 20.61 8.783 44.05 13.2 70.39 13.2 32.51 0 60.56-5.777 84.21-17.25 23.88-11.67 42.45-27.84 55.87-48.6 12.99-20.08 20.23-43.19 21.83-69.42h-90.68c-0.6248 14.13-3.492 26.09-8.902 35.65a2.5 2.5 0 0 1-0.0098 0.0176c-5.709 9.896-13.89 17.4-24.34 22.34a2.5 2.5 0 0 1-0.0332 0.0156c-10.44 4.746-23.11 7.06-37.95 7.06-13.4 0-24.9-2.231-34.44-6.809a2.5 2.5 0 0 1-0.0547-0.0273c-9.367-4.779-17.03-12.18-22.88-22-5.862-9.833-10.03-22.34-12.62-37.5-2.585-15.14-3.863-33.31-3.863-54.56v-22.15c0-21.25 1.371-39.44 4.143-54.59a2.5 2.5 0 0 1 0-0.0234c2.957-15.34 7.404-27.93 13.45-37.75 6.036-9.808 13.69-17.11 22.89-21.71 9.154-4.577 19.86-6.826 32.02-6.826 17.2 0 31.16 2.568 41.86 7.92 10.66 5.331 18.6 13.46 23.57 24.14 4.658 9.856 7.156 21.92 7.74 36.02h90.56c-2.607-26.07-10.11-49.3-22.58-69.75a2.5 2.5 0 0 1 0-0.0098c-12.89-21.3-31-38-54.52-50.21-23.44-12.17-52.28-18.31-86.62-18.31v-0.0078zm1475 0.2812v0.0059c-25.41 0-48.57 4.499-69.56 13.47a2.5 2.5 0 0 1-0.0098 0c-20.82 8.794-38.82 21.6-54.08 38.47-15.07 16.68-26.84 36.97-35.31 60.94-8.279 23.94-12.44 51-12.44 81.21v16.13c0 30.21 4.161 57.27 12.44 81.21v0.0097c8.467 23.77 20.32 44.05 35.57 60.92l0.0098 0.0098c15.44 16.69 33.54 29.51 54.36 38.48 0.01 0 0.0098-8e-4 0.0098 0 21 8.792 44.16 13.2 69.58 13.2 25.23 0 48.21-4.409 69.02-13.2 20.83-8.979 38.83-21.79 54.09-38.49 15.25-16.87 27.02-37.15 35.3-60.93a2.5 2.5 0 0 1 0-0.0098c8.458-23.93 12.71-50.99 12.71-81.2v-16.13c0-30.21-4.251-57.26-12.71-81.2-8.471-23.97-20.33-44.26-35.58-60.94a2.5 2.5 0 0 1-0.0098-0.0117c-15.26-16.87-33.34-29.68-54.35-38.47a2.5 2.5 0 0 1-0.0254-0.0117c-20.81-8.97-43.79-13.47-69.01-13.47zm-2612 5.469v393.1h90.98v-132.6a2.5 2.5 0 0 1 2.5-2.5h62.89c31.62 0 58.68-5.24 81.25-15.63 22.79-10.59 40.15-25.21 52.28-43.94 12.12-18.71 18.19-40.61 18.19-65.91 0-25.67-6.079-48.32-18.22-68.15a2.5 2.5 0 0 1-0.00586-0.0098c-12.15-20.01-29.52-35.71-52.31-47.19a2.5 2.5 0 0 1-0.00781 0c-22.55-11.46-49.58-17.23-81.17-17.23h-156.4zm344.8 0-0.00391 393.1h93.48 175.5v-68.83h-175.5a2.5 2.5 0 0 1-2.5-2.5v-94.88a2.5 2.5 0 0 1 2.5-2.5h148.2v-66.37h-148.2a2.5 2.5 0 0 1-2.5-2.5v-83.95a2.5 2.5 0 0 1 2.5-2.5h176.3v-69.1h-176.3-93.48zm293.4 0v393.1h90.98v-138a2.5 2.5 0 0 1 2.5-2.5h51.68a2.5 2.5 0 0 1 2.236 1.383l69.58 139.2h98.77v-0.9942l-82.9-160.5a2.5 2.5 0 0 1 1.135-3.4c10.54-5.088 20.4-10.66 28.85-17.27 12.45-9.783 22.13-22.11 29.08-37.1 6.91-14.88 10.43-33.57 10.43-56.1 0-25.86-6.08-47.35-18.15-64.75a2.5 2.5 0 0 1-0.0098-0.0157c-11.92-17.43-28.87-30.6-51.1-39.56-22.24-8.968-48.53-13.49-78.91-13.49h-154.2zm692.8 0-0.0039 393.1h93.48 175.5v-68.83h-175.5a2.5 2.5 0 0 1-2.5-2.5v-94.88a2.5 2.5 0 0 1 2.5-2.5h148.2v-66.37h-148.2a2.5 2.5 0 0 1-2.5-2.5v-83.95a2.5 2.5 0 0 1 2.5-2.5h176.3v-69.1h-176.3-93.48zm293.4 0 0.0058 393.1h90.98v-132.6a2.5 2.5 0 0 1 2.5-2.5h62.89c31.62 0 58.68-5.24 81.25-15.63 22.79-10.59 40.15-25.21 52.28-43.94 12.12-18.71 18.19-40.61 18.19-65.91 0-25.67-6.079-48.32-18.22-68.15a2.5 2.5 0 0 1-0.0097-0.0098c-12.15-20.01-29.52-35.71-52.31-47.19a2.5 2.5 0 0 1-0.0098 0c-22.55-11.46-49.58-17.23-81.17-17.23h-156.4zm324.5 0v69.1h114.5a2.5 2.5 0 0 1 2.5 2.5v321.5h90.98v-321.5a2.5 2.5 0 0 1 2.5-2.5h117.3v-69.1h-327.8zm359.8 0v393.1h90.7v-393.1h-90.7zm509.6 0-0.0039 393.1h90.98v-245.2a2.5 2.5 0 0 1 4.674-1.236l140.1 246.5h91.75v-393.1h-90.7v245.2a2.5 2.5 0 0 1-4.674 1.236l-140.1-246.5h-92.02zm-206.4 64.73h0.0156c12.57 0 23.86 2.734 33.74 8.236 10.05 5.317 18.49 13.3 25.24 23.81 6.761 10.52 11.77 23.47 15.1 38.81v0.0157c3.513 15.18 5.252 32.66 5.252 52.48v16.68c0 19.64-1.742 37.14-5.254 52.49-3.329 15.17-8.34 28.11-15.09 38.8l-0.0098 0.0097c-6.567 10.69-14.82 18.86-24.69 24.36-9.878 5.509-21.18 8.246-33.76 8.246-13.11 0-24.76-2.727-34.83-8.236a2.5 2.5 0 0 1-0.0195-0.0098c-9.873-5.506-18.21-13.68-24.96-24.36a2.5 2.5 0 0 1-0.0176-0.0273c-6.56-10.68-11.47-23.62-14.8-38.78a2.5 2.5 0 0 1-0.0098-0.0332c-3.141-15.34-4.699-32.82-4.699-52.46v-16.68c0-19.82 1.558-37.3 4.701-52.46a2.5 2.5 0 0 1 0-0.0215c3.328-15.34 8.244-28.29 14.82-38.8 6.572-10.51 14.83-18.51 24.7-23.83 9.893-5.514 21.46-8.24 34.56-8.24zm-2518 4.375h62.89c13.84 0 25.32 3.002 34.22 9.184 8.754 5.902 15.21 13.8 19.22 23.51 4.148 9.621 6.215 20.09 6.215 31.33 0 10.53-2.078 20.13-6.264 28.7-4.055 8.492-10.6 15.21-19.38 19.98-8.88 4.826-20.23 7.139-34.01 7.139h-62.89a2.5 2.5 0 0 1-2.5-2.5v-114.8a2.5 2.5 0 0 1 2.5-2.5zm638.1 0h60.7c12.15 0 22.51 2.242 30.98 6.857 8.62 4.597 15.23 11.3 19.64 19.93 4.408 8.624 6.562 18.88 6.562 30.67 0 11.6-2.156 21.77-6.555 30.38-4.227 8.452-10.65 15.07-19.08 19.67-8.489 4.63-19.04 6.867-31.55 6.867h-60.7a2.5 2.5 0 0 1-2.5-2.5v-109.4a2.5 2.5 0 0 1 2.5-2.5zm986.2 0h62.89c13.84 0 25.32 3.002 34.22 9.184 8.754 5.902 15.21 13.8 19.22 23.51 4.148 9.621 6.215 20.09 6.215 31.33 0 10.53-2.078 20.13-6.264 28.7-4.055 8.492-10.6 15.21-19.38 19.98-8.88 4.826-20.23 7.139-34.01 7.139h-62.89a2.5 2.5 0 0 1-2.5-2.5v-114.8a2.5 2.5 0 0 1 2.5-2.5z"/>
  <path id="robot" fill="#b8004f" d="m1351 92.74c-114.6-0.2813-118.8 93.27-118.8 107.3-6e-4 26.57 10.35 74.77 81.04 93.9 5.233 242.8-2.902 411.4 2.764 418.4 2.111 2.136 23.53 2.226 59.79 1.709 2.919-130 0.7585-284 0.1523-417.1 31.76-7.987 76.85-32.18 81.71-95.16 3.477-45.06-39.46-108.9-106.6-109zm433.2 427.6c-50.48 0.2763-100.8 2.298-151 7.557-10.74 1.309-163.5 39.14-168.6 157.2 11.76 227.3-8.478 455.7-3.951 682.7-9.568 136.3 34.58 243.7 188.6 247.7 220.5-0.9906 441-5.927 661.5-9.473 157.3-2.53 251.5-123.5 260.9-199.6 11.53-93.09-1.644-624.8-23.47-700.7-44.34-141.7-178.7-180.8-309.5-181-150.6 9.739-303-5.136-454.5-4.307zm-425.1 265.4c-23.32 0.133-54.4 0.7279-111.6 0.6191-27.5-0.0103-47.77 31.44-49.96 80.95 4.063 106.5-7.031 212.7-4.59 319.3-0.3381 52.95 2.614 102.1 66.82 104.8 49.63 0.3428 157-0.4589 157-0.4589s4.96-335.5 7.434-503c-26.18-1.953-41.74-2.281-65.06-2.148zm1764 200.4c-14.44 0.6099-27.08 5.711-33.73 16.12-35.99 56.32-130.8 126.6-157.5 192.7-9.09 22.49-8.485 64.37-10.64 104.2-2.342 43.25-6.433 70.03-9.557 89.93 0.515-0.3992 1.015-0.8282 1.533-1.221 75.28-57.01 158.9-36.95 177.6-31.42 2.08-39.1-1.185-93.06-2.916-122.5-4.334-63.84 67.34-103.2 100.6-154 37.44-57.13-22.09-95.73-65.41-93.9zm351.7 242.9c-11.58-0.5923-22.59 1.99-30.82 8.51-16.33 12.94-113.8 148.2-123.5 152.4-50.95 22.23-125.6-13.26-177.8-7.773 54.92 42.28 74.98 122.3 55.13 180.5 162.3 26.55 331.4-247.1 337.1-263.1 14.52-38.42-25.41-68.78-60.16-70.55zm-446.4 169.7c-60.92 0.048-128.6 44.32-131.7 114-2.662 75.4 62.4 124 124.8 120.3 103.4-6.064 134.3-81.33 133.9-116.3-1.338-112.5-98.63-118.1-121.2-117.8-1.948-0.091-3.906-0.1363-5.871-0.1347zm-175 165.1c-84.15 98.15-211.9 254.7-297.4 361.9 59.67 9.632 105.2 42.77 132 80.64 14.51 20.46 24.58 41.5 31.2 61.95 96.4-114.9 220.5-272 306.2-385.4-0.3125 0.019-0.6125 0.058-0.9257 0.076-74.1 4.347-148.8-43.72-171.1-119.1zm-1167 105.1c-0.011 25.27-1.239 50.71 0 76 8.182 10.89 339.5 85.79 342.6 85.08-0.035-52.39 13.14-108 11.37-159.9zm-126.4 127.3c-79.41 2.28-205 39.96-210.1 254.3 12.34 202.5 2.75 411.3 2.75 612.1 0 10.3 3.464 24.44 13.55 24.54 238.6 2.31 477.5-7.446 716.2-8.215 5.316-122.9 12.14-246.4 3.637-369.2-4.116-59.45-430.2-14.16-413.4-77.03 11.84-44.21 451.1 11.28 679.6 33.48-26.09-36.46-40.35-80.01-42.09-124.2-1.563-39.77 8.152-89.91 40.64-136.1 11.45-16.26 26.37-31.42 44.29-44.28-260.7-61.42-597.2-157.9-835.1-165.5zm14.72 92.66c59.02 1.355 118.5 53.24 122.9 131.9 4.19 67.78-46.29 131-119.6 133.3-27.31 1.336-55.75-6.971-80.86-27.83-25.35-21.07-44.14-56.33-46.5-98.26-4.504-79.92 55.38-140.6 124-139.1zm-1.148 49.99c-34.58-0.7941-75.94 33.65-72.97 86.27 3.388 60.11 47.55 80.53 75.46 78.97 42.33-1.126 74.09-41.87 71.64-80.41-3.106-57.26-41.66-84.08-74.13-84.83zm948.4 33.96c-129.4-1.269-164.1 110.6-161.9 167.2 3.178 80.88 62.67 163.7 156.6 157.9 159.2-9.813 162.5-160.6 162.6-162.5 0.9539-51.44-35.02-161.4-157.3-162.6z"/>
  <path id="eye" fill="#f9f9f9" d="m2066 789.9c-168.7-5.834-279.8 129.1-294.2 235.2-28.6 211.3 120.4 340.4 298.4 349.1 88.57 4.329 284.4-52.25 300.8-255.6 15.15-188.2-128.3-322.5-305-328.7z"/>
  <path id="iris" fill="#03060e" d="m2052 889.9c-96.57-0.1012-187.3 79.09-178 197.6 6.975 89.38 68.93 164.5 173.5 178.2 112.2 14.65 210.5-69.1 207.5-177.5-4.404-161.6-142-198.3-203-198.3zm52.64 72.64c31.62-0.372 64.63 24.48 64.24 57.67-0.3339 28.72-24.56 52.7-53.52 54.97-31.71 2.491-65.46-14.77-73.23-47.6-7.385-31.18 14.54-64.49 62.5-65.05z"/>
  <path id="border" fill="#a1a4ab" d="m2064 171.7a10 10 0 0 0-3.524 0.7559 10 10 0 0 0-0.1484 0c-195.2 80.7-389.7 163.8-583.8 248.2 0.0452 7.232 0.0866 14.5 0.1289 21.79 192.1-83.6 384.6-165.9 577.7-245.8l2.824 189.5a10 10 0 0 0 10.15 9.85 10 10 0 0 0 9.85-10.15l-2.816-189.1c444.7 183.3 888.1 368.8 1326 562.1 0.7099 128.3 0.9803 258.1 1.512 386.9 6.614-3.529 13.29-6.241 19.97-8.543-0.5386-128.1-0.8062-257.3-1.514-385a10 10 0 0 0-5.961-9.094c-445.1-196.4-895.3-384.7-1347-570.7a10 10 0 0 0-0.0488 0 10 10 0 0 0-3.91-0.752zm-849.7 364.3c-177.8 78.86-355.2 158.6-532.3 239.9a10 10 0 0 0-5.828 9.016c-3.674 507.9-3.663 1017-2.021 1526a10 10 0 0 0 0.2539 0.416 10 10 0 0 0 0.7402 3.898 10 10 0 0 0 4.182 4.201 10 10 0 0 0 0.1894 0.3125c184.5 96.53 370.3 189.6 559 274.3a10 10 0 0 0 13.22-5.031 10 10 0 0 0-5.031-13.22c-182.1-81.7-361.6-171.4-540.1-264.5 178.9-86.12 357.7-169.6 536.6-250.8a10 10 0 0 0 4.977-13.24 10 10 0 0 0-5.59-5.23 10 10 0 0 0-7.648 0.2539c-180.3 81.79-360.5 165.9-540.8 252.8-1.584-501.7-1.578-1003 2.012-1504 172.4-79.1 345.1-156.8 518.2-233.6 0.0465-6.158-0.0612-15.41-0.0215-21.89zm2209 1049c-6.602 5.346-13.09 10.75-20.04 15.79 0.0757 226.5-0.5162 456.2-2.635 693.9-180.6-77.99-361.2-157.8-541.8-240.3-4.357 5.334-8.748 10.81-13.05 16.06 180.4 82.46 360.8 162.2 541.2 240.1-205.1 102.6-411.3 206.1-620.2 311.9a10 10 0 0 0-4.404 13.44 10 10 0 0 0 13.44 4.404c215.3-109 427.9-215.8 639.3-321.5a10 10 0 0 0 0.2714-0.4356 10 10 0 0 0 4.438-4.547 10 10 0 0 0 0.7676-3.787 10 10 0 0 0 0.0508-0.082c2.276-248.7 2.901-488.6 2.775-724.9z"/>
</svg>
